<svg width="32" height="33" viewBox="0 0 32 33" fill="none" xmlns="http://www.w3.org/2000/svg">
<g id="escalation" clip-path="url(#clip0_9024_2071)">
<g id="Icon">
<g id="Avatar">
<rect width="32" height="32" rx="16" fill="white"/>
<path id="Vector 64" d="M15.0586 11.5068C15.4773 10.8007 16.5227 10.8007 16.9414 11.5068L17.0215 11.6689L20.0938 19.3496C20.512 20.3954 19.2747 21.319 18.3906 20.6211L16.5576 19.1738C16.2307 18.9159 15.7693 18.9159 15.4424 19.1738L13.6094 20.6211C12.7253 21.319 11.488 20.3954 11.9062 19.3496L14.9785 11.6689L15.0586 11.5068Z" stroke="#131E29" stroke-width="1.4" stroke-linecap="round" stroke-linejoin="round"/>
<path id="bg_frame" d="M16 4.5C16.9633 4.5 17.8997 4.61825 18.7949 4.8418L18.6738 5.32715L18.6729 5.3291C19.7368 5.59475 20.7393 6.0143 21.6553 6.56445L21.6562 6.56348L21.9131 6.13477C23.5324 7.1074 24.8926 8.4676 25.8652 10.0869L25.4365 10.3438H25.4346C25.9849 11.2597 26.4041 12.2622 26.6699 13.3262H26.6729L27.1582 13.2051C27.3818 14.1003 27.5 15.0367 27.5 16C27.5 16.9633 27.3818 17.8997 27.1582 18.7949L26.6729 18.6738L26.6699 18.6729C26.4042 19.7369 25.9848 20.7393 25.4346 21.6553L25.4365 21.6562L25.8652 21.9131C24.8926 23.5324 23.5324 24.8926 21.9131 25.8652L21.6562 25.4365L21.6553 25.4346C20.7393 25.9848 19.7369 26.4042 18.6729 26.6699L18.6738 26.6729L18.7949 27.1582C17.8997 27.3818 16.9633 27.5 16 27.5C15.0367 27.5 14.1003 27.3818 13.2051 27.1582L13.3262 26.6729V26.6699C12.2622 26.4041 11.2597 25.9849 10.3438 25.4346V25.4365L10.0869 25.8652C8.4676 24.8926 7.1074 23.5324 6.13477 21.9131L6.56348 21.6562L6.56445 21.6553C6.0143 20.7393 5.59475 19.7368 5.3291 18.6729L5.32715 18.6738L4.8418 18.7949C4.61825 17.8997 4.5 16.9633 4.5 16C4.5 15.0367 4.61825 14.1003 4.8418 13.2051L5.32715 13.3262H5.3291C5.59483 12.2623 6.01425 11.2596 6.56445 10.3438H6.56348L6.13477 10.0869C7.1074 8.4676 8.4676 7.1074 10.0869 6.13477L10.3438 6.56348V6.56445C11.2596 6.01425 12.2623 5.59483 13.3262 5.3291V5.32715L13.2051 4.8418C14.1003 4.61825 15.0367 4.5 16 4.5Z" stroke="#131E29" stroke-linejoin="round" stroke-dasharray="5 3"/>
</g>
</g>
</g>
<defs>
<clipPath id="clip0_9024_2071">
<rect width="32" height="33" fill="white"/>
</clipPath>
</defs>
</svg>
