<svg width="40" height="40" viewBox="0 0 40 40" fill="none" xmlns="http://www.w3.org/2000/svg">
<rect x="2" y="2" width="32" height="32" rx="16" fill="white"/>
<path d="M18 6.5C24.3513 6.5 29.5 11.6487 29.5 18C29.5 24.3513 24.3513 29.5 18 29.5C11.6487 29.5 6.5 24.3513 6.5 18C6.5 11.6487 11.6487 6.5 18 6.5Z" stroke="#131E29"/>
<path d="M18 32C25.732 32 32 25.732 32 18C32 10.268 25.732 4 18 4C10.268 4 4 10.268 4 18C4 25.732 10.268 32 18 32Z" stroke="#131E29"/>
<path d="M20.9355 11.6086C21.5011 10.6892 22.9836 11.2342 22.7591 12.3447L20.9097 21.497C20.737 22.3509 19.6304 22.5912 19.1192 21.8857L17.4543 19.5871L15.1168 24.2976C14.5968 25.3452 13.0093 24.8017 13.241 23.6553L15.0914 14.5027C15.2533 13.7019 16.2365 13.4407 16.7797 13.9931L16.8819 14.1139L18.5455 16.412L20.8834 11.7024L20.9355 11.6086Z" stroke="#131E29" stroke-width="1.4" stroke-linecap="round" stroke-linejoin="round"/>
</svg>
